<?xml version="1.0"?>
<svg xmlns="http://www.w3.org/2000/svg" viewBox="0 0 512 512" width="512px" height="512px" class=""><g><g id="solid"><path d="M48,428.063a33.948,33.948,0,0,1-16-28.855V384.792a33.949,33.949,0,0,1,16-28.854Zm80-87.119,7.155,3.578A15.912,15.912,0,0,1,144,358.833v66.334a15.912,15.912,0,0,1-8.845,14.311L128,443.056ZM384,443.056l-7.155-3.578A15.912,15.912,0,0,1,368,425.167V358.833a15.912,15.912,0,0,1,8.845-14.311L384,340.944ZM112,456H96V384a8,8,0,0,0-16,0v72H74a10.011,10.011,0,0,1-10-10V338a10.011,10.011,0,0,1,10-10h6v24a8,8,0,0,0,16,0V328h16ZM80,312V280H96v32ZM256,88c-83.813,0-152,68.187-152,152v24H72V240C72,138.542,154.542,56,256,56s184,82.542,184,184v24H408V240C408,156.187,339.813,88,256,88ZM432,280v32H416V280Zm16,64V446a10.011,10.011,0,0,1-10,10h-6V384a8,8,0,0,0-16,0v72H400V328h16v24a8,8,0,0,0,16,0V328h6a10.011,10.011,0,0,1,10,10Zm32,55.208a33.95,33.95,0,0,1-16,28.857V355.937a33.948,33.948,0,0,1,16,28.855Z" data-original="#000000" class="active-path" data-old_color="#000000" fill="#FF9A00"/><path d="M176,384a8,8,0,0,0,8,8h24a8,8,0,0,0,7.428-5.029L223.015,368l25.339,82.351A8,8,0,0,0,256,456q.159,0,.321-.006a8,8,0,0,0,7.491-6.259l25.344-114.048L304.337,386.3A8,8,0,0,0,312,392h16a8,8,0,0,0,0-16H317.952l-22.289-74.3a8,8,0,0,0-15.473.564L254.751,416.74l-23.105-75.093a8,8,0,0,0-15.074-.618L202.584,376H184A8,8,0,0,0,176,384Z" data-original="#000000" class="active-path" data-old_color="#000000" fill="#FF9A00"/><path d="M200,232V208a8,8,0,0,0-16,0v24a8,8,0,0,0,16,0Z" data-original="#000000" class="active-path" data-old_color="#000000" fill="#FF9A00"/><path d="M224,264a8,8,0,0,0,8-8V192a8,8,0,0,0-16,0v64A8,8,0,0,0,224,264Z" data-original="#000000" class="active-path" data-old_color="#000000" fill="#FF9A00"/><path d="M264,272V176a8,8,0,0,0-16,0v96a8,8,0,0,0,16,0Z" data-original="#000000" class="active-path" data-old_color="#000000" fill="#FF9A00"/><path d="M288,264a8,8,0,0,0,8-8V192a8,8,0,0,0-16,0v64A8,8,0,0,0,288,264Z" data-original="#000000" class="active-path" data-old_color="#000000" fill="#FF9A00"/><path d="M328,232V208a8,8,0,0,0-16,0v24a8,8,0,0,0,16,0Z" data-original="#000000" class="active-path" data-old_color="#000000" fill="#FF9A00"/><path d="M360,224v-8a8,8,0,0,0-16,0v8a8,8,0,0,0,16,0Z" data-original="#000000" class="active-path" data-old_color="#000000" fill="#FF9A00"/><path d="M168,216a8,8,0,0,0-16,0v8a8,8,0,0,0,16,0Z" data-original="#000000" class="active-path" data-old_color="#000000" fill="#FF9A00"/></g></g> </svg>
